<svg xmlns="http://www.w3.org/2000/svg" width="1200" height="800" viewBox="0 0 1200 800" role="img" aria-label="POYA TRADE desktop analytics interface">
<defs><linearGradient id="bg" x1="0" y1="0" x2="1" y2="1"><stop stop-color="#F2D2A5"/><stop offset="1" stop-color="#C68642"/></linearGradient>
<linearGradient id="win" x1="0" y1="0" x2="0" y2="1"><stop stop-color="#241911"/><stop offset="1" stop-color="#17100A"/></linearGradient>
<linearGradient id="ar" x1="0" y1="0" x2="0" y2="1"><stop stop-color="#E7B070" stop-opacity=".30"/><stop offset="1" stop-color="#E7B070" stop-opacity="0"/></linearGradient></defs>
<rect width="1200" height="800" fill="url(#bg)"/>
<circle cx="1080" cy="80" r="260" fill="#fff" opacity=".22"/>
<rect x="60" y="64" width="1080" height="690" rx="30" fill="#000" opacity=".16" transform="translate(0 16)"/>
<rect x="60" y="64" width="1080" height="690" rx="30" fill="url(#win)"/>
<rect x="60" y="64" width="1080" height="58" rx="30" fill="#2C2017"/><rect x="60" y="92" width="1080" height="30" fill="#2C2017"/>
<circle cx="94" cy="93" r="7" fill="#E5766A"/><circle cx="118" cy="93" r="7" fill="#F2B84B"/><circle cx="142" cy="93" r="7" fill="#7FCB93"/>
<text x="600" y="99" text-anchor="middle" font-family="Helvetica,Arial,sans-serif" font-size="17" font-weight="700" fill="#EBD9C4" letter-spacing="1">POYA TRADE</text>
<rect x="60" y="122" width="190" height="632" fill="#1D140D"/>
<g font-family="Helvetica,Arial,sans-serif" font-size="15" fill="#B9AA9B">
<rect x="82" y="148" width="146" height="42" rx="12" fill="#E7B070" opacity=".18"/><text x="104" y="175" fill="#F2C890" font-weight="600">Market</text>
<text x="104" y="226">Watchlist</text><text x="104" y="268">Indicators</text><text x="104" y="310">Alerts</text><text x="104" y="352">Settings</text></g>
<g font-family="Helvetica,Arial,sans-serif">
<rect x="276" y="146" width="196" height="96" rx="18" fill="#2B1F15"/><text x="298" y="178" font-size="13" fill="#B9AA9B">Total market</text><text x="298" y="216" font-size="28" font-weight="700" fill="#F6EFE7">$2.48T</text>
<rect x="488" y="146" width="196" height="96" rx="18" fill="#2B1F15"/><text x="510" y="178" font-size="13" fill="#B9AA9B">BTC / USD</text><text x="510" y="216" font-size="28" font-weight="700" fill="#F6EFE7">67,842</text>
<rect x="700" y="146" width="196" height="96" rx="18" fill="#2B1F15"/><text x="722" y="178" font-size="13" fill="#B9AA9B">ETH / USD</text><text x="722" y="216" font-size="28" font-weight="700" fill="#F6EFE7">3,524</text>
<rect x="912" y="146" width="204" height="40" rx="12" fill="#2B1F15"/><text x="934" y="172" font-size="14" fill="#B9AA9B">Watchlist · 24</text></g>
<rect x="276" y="262" width="620" height="466" rx="22" fill="#2B1F15"/>
<g stroke="#fff" stroke-opacity=".06"><line x1="300" x2="872" y1="330" y2="330"/><line x1="300" x2="872" y1="394" y2="394"/><line x1="300" x2="872" y1="458" y2="458"/><line x1="300" x2="872" y1="522" y2="522"/><line x1="300" x2="872" y1="586" y2="586"/><line x1="300" x2="872" y1="650" y2="650"/></g>
<g><line x1="318" x2="318" y1="428.5" y2="488.6" stroke="#E7B070" stroke-width="2"/><rect x="313" y="453.2" width="10" height="3.0" rx="3" fill="#E7B070"/><line x1="335" x2="335" y1="427.3" y2="478.5" stroke="#E7B070" stroke-width="2"/><rect x="330" y="450.5" width="10" height="3.0" rx="3" fill="#E7B070"/><line x1="352" x2="352" y1="427.2" y2="503.9" stroke="#9C6A5A" stroke-width="2"/><rect x="347" y="450.5" width="10" height="27.0" rx="3" fill="#9C6A5A"/><line x1="369" x2="369" y1="428.0" y2="495.3" stroke="#E7B070" stroke-width="2"/><rect x="364" y="440.4" width="10" height="37.1" rx="3" fill="#E7B070"/><line x1="386" x2="386" y1="409.2" y2="505.4" stroke="#9C6A5A" stroke-width="2"/><rect x="381" y="440.4" width="10" height="36.9" rx="3" fill="#9C6A5A"/><line x1="403" x2="403" y1="441.5" y2="554.5" stroke="#9C6A5A" stroke-width="2"/><rect x="398" y="477.2" width="10" height="42.0" rx="3" fill="#9C6A5A"/><line x1="420" x2="420" y1="470.7" y2="533.2" stroke="#E7B070" stroke-width="2"/><rect x="415" y="496.8" width="10" height="22.5" rx="3" fill="#E7B070"/><line x1="437" x2="437" y1="473.0" y2="553.0" stroke="#9C6A5A" stroke-width="2"/><rect x="432" y="496.8" width="10" height="44.8" rx="3" fill="#9C6A5A"/><line x1="454" x2="454" y1="525.3" y2="578.6" stroke="#9C6A5A" stroke-width="2"/><rect x="449" y="541.6" width="10" height="26.4" rx="3" fill="#9C6A5A"/><line x1="471" x2="471" y1="544.0" y2="600.0" stroke="#E7B070" stroke-width="2"/><rect x="466" y="565.5" width="10" height="3.0" rx="3" fill="#E7B070"/><line x1="488" x2="488" y1="530.5" y2="588.5" stroke="#E7B070" stroke-width="2"/><rect x="483" y="557.2" width="10" height="8.3" rx="3" fill="#E7B070"/><line x1="505" x2="505" y1="512.0" y2="574.4" stroke="#E7B070" stroke-width="2"/><rect x="500" y="533.9" width="10" height="23.4" rx="3" fill="#E7B070"/><line x1="522" x2="522" y1="439.1" y2="565.9" stroke="#E7B070" stroke-width="2"/><rect x="517" y="475.2" width="10" height="58.7" rx="3" fill="#E7B070"/><line x1="539" x2="539" y1="428.9" y2="491.1" stroke="#E7B070" stroke-width="2"/><rect x="534" y="447.1" width="10" height="28.1" rx="3" fill="#E7B070"/><line x1="556" x2="556" y1="435.3" y2="493.1" stroke="#9C6A5A" stroke-width="2"/><rect x="551" y="447.1" width="10" height="16.0" rx="3" fill="#9C6A5A"/><line x1="573" x2="573" y1="430.9" y2="487.3" stroke="#9C6A5A" stroke-width="2"/><rect x="568" y="463.0" width="10" height="4.2" rx="3" fill="#9C6A5A"/><line x1="590" x2="590" y1="380.6" y2="477.2" stroke="#E7B070" stroke-width="2"/><rect x="585" y="412.8" width="10" height="54.5" rx="3" fill="#E7B070"/><line x1="607" x2="607" y1="378.9" y2="459.3" stroke="#9C6A5A" stroke-width="2"/><rect x="602" y="412.8" width="10" height="24.3" rx="3" fill="#9C6A5A"/><line x1="624" x2="624" y1="359.9" y2="448.9" stroke="#E7B070" stroke-width="2"/><rect x="619" y="380.3" width="10" height="56.8" rx="3" fill="#E7B070"/><line x1="641" x2="641" y1="330.0" y2="397.2" stroke="#E7B070" stroke-width="2"/><rect x="636" y="360.4" width="10" height="19.9" rx="3" fill="#E7B070"/><line x1="658" x2="658" y1="341.7" y2="432.8" stroke="#9C6A5A" stroke-width="2"/><rect x="653" y="360.4" width="10" height="37.2" rx="3" fill="#9C6A5A"/><line x1="675" x2="675" y1="356.1" y2="414.0" stroke="#E7B070" stroke-width="2"/><rect x="670" y="369.1" width="10" height="28.5" rx="3" fill="#E7B070"/><line x1="692" x2="692" y1="357.7" y2="440.7" stroke="#9C6A5A" stroke-width="2"/><rect x="687" y="369.1" width="10" height="40.7" rx="3" fill="#9C6A5A"/><line x1="709" x2="709" y1="385.2" y2="464.1" stroke="#9C6A5A" stroke-width="2"/><rect x="704" y="409.8" width="10" height="32.6" rx="3" fill="#9C6A5A"/><line x1="726" x2="726" y1="413.3" y2="487.0" stroke="#9C6A5A" stroke-width="2"/><rect x="721" y="442.4" width="10" height="31.3" rx="3" fill="#9C6A5A"/><line x1="743" x2="743" y1="444.3" y2="494.6" stroke="#E7B070" stroke-width="2"/><rect x="738" y="457.2" width="10" height="16.5" rx="3" fill="#E7B070"/><line x1="760" x2="760" y1="440.3" y2="521.6" stroke="#9C6A5A" stroke-width="2"/><rect x="755" y="457.2" width="10" height="28.9" rx="3" fill="#9C6A5A"/><line x1="777" x2="777" y1="435.0" y2="519.3" stroke="#E7B070" stroke-width="2"/><rect x="772" y="452.9" width="10" height="33.3" rx="3" fill="#E7B070"/><line x1="794" x2="794" y1="432.6" y2="514.4" stroke="#9C6A5A" stroke-width="2"/><rect x="789" y="452.9" width="10" height="29.1" rx="3" fill="#9C6A5A"/><line x1="811" x2="811" y1="453.3" y2="518.0" stroke="#E7B070" stroke-width="2"/><rect x="806" y="465.8" width="10" height="16.3" rx="3" fill="#E7B070"/><line x1="828" x2="828" y1="449.1" y2="524.9" stroke="#9C6A5A" stroke-width="2"/><rect x="823" y="465.8" width="10" height="28.9" rx="3" fill="#9C6A5A"/><line x1="845" x2="845" y1="477.0" y2="523.2" stroke="#9C6A5A" stroke-width="2"/><rect x="840" y="494.7" width="10" height="16.7" rx="3" fill="#9C6A5A"/><line x1="862" x2="862" y1="486.1" y2="569.5" stroke="#9C6A5A" stroke-width="2"/><rect x="857" y="511.4" width="10" height="41.8" rx="3" fill="#9C6A5A"/><line x1="879" x2="879" y1="521.6" y2="575.0" stroke="#E7B070" stroke-width="2"/><rect x="874" y="541.2" width="10" height="12.0" rx="3" fill="#E7B070"/></g><rect x="313" y="663.3" width="10" height="40.7" rx="3" fill="#E7B070" opacity=".22"/><rect x="330" y="678.5" width="10" height="25.5" rx="3" fill="#E7B070" opacity=".22"/><rect x="347" y="675.6" width="10" height="28.4" rx="3" fill="#E7B070" opacity=".22"/><rect x="364" y="666.3" width="10" height="37.7" rx="3" fill="#E7B070" opacity=".22"/><rect x="381" y="688.1" width="10" height="15.9" rx="3" fill="#E7B070" opacity=".22"/><rect x="398" y="689.1" width="10" height="14.9" rx="3" fill="#E7B070" opacity=".22"/><rect x="415" y="664.9" width="10" height="39.1" rx="3" fill="#E7B070" opacity=".22"/><rect x="432" y="667.8" width="10" height="36.2" rx="3" fill="#E7B070" opacity=".22"/><rect x="449" y="686.0" width="10" height="18.0" rx="3" fill="#E7B070" opacity=".22"/><rect x="466" y="687.9" width="10" height="16.1" rx="3" fill="#E7B070" opacity=".22"/><rect x="483" y="670.3" width="10" height="33.7" rx="3" fill="#E7B070" opacity=".22"/><rect x="500" y="663.9" width="10" height="40.1" rx="3" fill="#E7B070" opacity=".22"/><rect x="517" y="687.7" width="10" height="16.3" rx="3" fill="#E7B070" opacity=".22"/><rect x="534" y="663.6" width="10" height="40.4" rx="3" fill="#E7B070" opacity=".22"/><rect x="551" y="665.8" width="10" height="38.2" rx="3" fill="#E7B070" opacity=".22"/><rect x="568" y="674.7" width="10" height="29.3" rx="3" fill="#E7B070" opacity=".22"/><rect x="585" y="680.5" width="10" height="23.5" rx="3" fill="#E7B070" opacity=".22"/><rect x="602" y="690.7" width="10" height="13.3" rx="3" fill="#E7B070" opacity=".22"/><rect x="619" y="692.8" width="10" height="11.2" rx="3" fill="#E7B070" opacity=".22"/><rect x="636" y="663.2" width="10" height="40.8" rx="3" fill="#E7B070" opacity=".22"/><rect x="653" y="686.4" width="10" height="17.6" rx="3" fill="#E7B070" opacity=".22"/><rect x="670" y="671.5" width="10" height="32.5" rx="3" fill="#E7B070" opacity=".22"/><rect x="687" y="685.8" width="10" height="18.2" rx="3" fill="#E7B070" opacity=".22"/><rect x="704" y="667.6" width="10" height="36.4" rx="3" fill="#E7B070" opacity=".22"/><rect x="721" y="674.9" width="10" height="29.1" rx="3" fill="#E7B070" opacity=".22"/><rect x="738" y="684.6" width="10" height="19.4" rx="3" fill="#E7B070" opacity=".22"/><rect x="755" y="688.4" width="10" height="15.6" rx="3" fill="#E7B070" opacity=".22"/><rect x="772" y="670.9" width="10" height="33.1" rx="3" fill="#E7B070" opacity=".22"/><rect x="789" y="691.8" width="10" height="12.2" rx="3" fill="#E7B070" opacity=".22"/><rect x="806" y="686.7" width="10" height="17.3" rx="3" fill="#E7B070" opacity=".22"/><rect x="823" y="676.1" width="10" height="27.9" rx="3" fill="#E7B070" opacity=".22"/><rect x="840" y="666.7" width="10" height="37.3" rx="3" fill="#E7B070" opacity=".22"/><rect x="857" y="674.3" width="10" height="29.7" rx="3" fill="#E7B070" opacity=".22"/><rect x="874" y="685.0" width="10" height="19.0" rx="3" fill="#E7B070" opacity=".22"/><text x="300" y="296" font-family="Helvetica,Arial,sans-serif" font-size="15" font-weight="700" fill="#F6EFE7">BTC / USD · 4H</text>
<rect x="912" y="204" width="204" height="524" rx="22" fill="#2B1F15"/>
<text x="934" y="248" font-family="Helvetica,Arial,sans-serif" font-size="15" font-weight="700" fill="#F6EFE7">Top assets</text>
<circle cx="946" cy="300" r="16" fill="#E7B070" opacity="0.95"/><text x="974" y="305" font-family="Helvetica,Arial,sans-serif" font-size="15" font-weight="700" fill="#F6EFE7">BTC</text><text x="1094" y="298" text-anchor="end" font-family="Helvetica,Arial,sans-serif" font-size="15" fill="#F6EFE7">67,842</text><text x="1094" y="316" text-anchor="end" font-family="Helvetica,Arial,sans-serif" font-size="12" fill="#7FD6A2">+2.17%</text><circle cx="946" cy="370" r="16" fill="#E7B070" opacity="0.85"/><text x="974" y="375" font-family="Helvetica,Arial,sans-serif" font-size="15" font-weight="700" fill="#F6EFE7">ETH</text><text x="1094" y="368" text-anchor="end" font-family="Helvetica,Arial,sans-serif" font-size="15" fill="#F6EFE7">3,524</text><text x="1094" y="386" text-anchor="end" font-family="Helvetica,Arial,sans-serif" font-size="12" fill="#7FD6A2">+1.62%</text><circle cx="946" cy="440" r="16" fill="#E7B070" opacity="0.75"/><text x="974" y="445" font-family="Helvetica,Arial,sans-serif" font-size="15" font-weight="700" fill="#F6EFE7">SOL</text><text x="1094" y="438" text-anchor="end" font-family="Helvetica,Arial,sans-serif" font-size="15" fill="#F6EFE7">168.4</text><text x="1094" y="456" text-anchor="end" font-family="Helvetica,Arial,sans-serif" font-size="12" fill="#E08A7C">-0.84%</text><circle cx="946" cy="510" r="16" fill="#E7B070" opacity="0.65"/><text x="974" y="515" font-family="Helvetica,Arial,sans-serif" font-size="15" font-weight="700" fill="#F6EFE7">BNB</text><text x="1094" y="508" text-anchor="end" font-family="Helvetica,Arial,sans-serif" font-size="15" fill="#F6EFE7">592.1</text><text x="1094" y="526" text-anchor="end" font-family="Helvetica,Arial,sans-serif" font-size="12" fill="#7FD6A2">+0.41%</text><circle cx="946" cy="580" r="16" fill="#E7B070" opacity="0.55"/><text x="974" y="585" font-family="Helvetica,Arial,sans-serif" font-size="15" font-weight="700" fill="#F6EFE7">XRP</text><text x="1094" y="578" text-anchor="end" font-family="Helvetica,Arial,sans-serif" font-size="15" fill="#F6EFE7">0.612</text><text x="1094" y="596" text-anchor="end" font-family="Helvetica,Arial,sans-serif" font-size="12" fill="#E08A7C">-1.20%</text><circle cx="946" cy="650" r="16" fill="#E7B070" opacity="0.45"/><text x="974" y="655" font-family="Helvetica,Arial,sans-serif" font-size="15" font-weight="700" fill="#F6EFE7">ADA</text><text x="1094" y="648" text-anchor="end" font-family="Helvetica,Arial,sans-serif" font-size="15" fill="#F6EFE7">0.468</text><text x="1094" y="666" text-anchor="end" font-family="Helvetica,Arial,sans-serif" font-size="12" fill="#7FD6A2">+3.05%</text></svg>